<svg xmlns="http://www.w3.org/2000/svg" viewBox="0 0 989 562.44"><defs><style>.cls-1{fill:#fff;}</style></defs><title>Asset 2</title><g id="Layer_2" data-name="Layer 2"><g id="Layer_1-2" data-name="Layer 1"><path class="cls-1" d="M150.41,0A172.88,172.88,0,0,0,90.86,10.64,137.88,137.88,0,0,0,42.41,42,143.22,143.22,0,0,0,10.88,89.34,151,151,0,0,0,0,147.64,148,148,0,0,0,19.12,223a139.09,139.09,0,0,0,56.31,54.29,131.46,131.46,0,0,0,34.32,13c13,3.47,26.21,4.59,39.5,4.62a169.46,169.46,0,0,0,33-3.39,182.45,182.45,0,0,0,33-10v-.24l2.4-73.56a136.55,136.55,0,0,0,30.65,44.46c14,13.54,30.64,24.41,42.74,29.34s18.41,7,24.84,8.6L316,559.47h97.22l.1-139,82.45,139,288.47-.07v-76l-90.52-.11V454.49l80-.14v-71.8l-80-.14V356H818.29V559.33h.28v.28l100.49-.14L919.2,356l55.78-.14v-76l-46.23-.14a110.51,110.51,0,0,0,43.72-39.1,87.64,87.64,0,0,0,12.62-32.45C988,192,989,159,989,159L988.86,6.83,888,7l.24,158.91c.49,6.19-1.78,18.81-7,30.05a23.55,23.55,0,0,1-9.3,8c-3.74,1.78-7.94,2.54-15.09,2.36a22.11,22.11,0,0,1-18.39-10.08s0,0,0,0v0a74.68,74.68,0,0,1-6.28-36.5l-.14-152.9h-101l-.14,53a76.84,76.84,0,0,0-21.42-28.71v0A128.87,128.87,0,0,0,625.13,6.69h0l-126.84.14-.14,91c-.9-2.66-1.84-5.3-2.89-7.89a141.07,141.07,0,0,0-31.57-47.17A144.86,144.86,0,0,0,415,11.2,156.5,156.5,0,0,0,355.9.39,174.49,174.49,0,0,0,296.81,11.2l.21.5,0,0c-.07-.17-.11-.35-.18-.53a142.49,142.49,0,0,0-48.52,31.57C234.78,58,223.31,74,216.55,90l-.15-75.57,0-.21a158.11,158.11,0,0,0-66-14.2ZM615.62,78.81c.49,0,1,0,1.48,0a32,32,0,0,1,19.3,7.29,27.26,27.26,0,0,1,7.83,20.75v0a26.15,26.15,0,0,1-7.83,20.18l-.21-.25.18.25a32.54,32.54,0,0,1-22.27,7.08H598.39v-.28h-.25V79.12h.25v-.28H614.1C614.59,78.81,615.12,78.82,615.62,78.81ZM155.13,91.63c.92,0,1.83,0,2.75,0a72.84,72.84,0,0,1,30.34,6.55,90.7,90.7,0,0,1,21.84,14l-.17.21.28,0a162.28,162.28,0,0,0-3.74,35.15A174.5,174.5,0,0,0,210,182l-.24.07.14.21a134.07,134.07,0,0,1-24.25,13.57A77,77,0,0,1,156,202.11h0a51.78,51.78,0,0,1-38.65-14.83,54.34,54.34,0,0,1-14.45-39.64A55,55,0,0,1,118,107v0a53.36,53.36,0,0,1,37.17-15.32Zm198.3,2.26c.81,0,1.63,0,2.43.1h0a43.58,43.58,0,0,1,34.35,14.73,57.3,57.3,0,0,1,13,38.92,56.36,56.36,0,0,1-13,38.55v0a44,44,0,0,1-34.35,14.55h0a44.29,44.29,0,0,1-34.45-14.55v0a56,56,0,0,1-13.08-38.55,57.07,57.07,0,0,1,13.08-38.82A41.86,41.86,0,0,1,351,94c.8,0,1.59-.08,2.39-.07ZM731,138l.22.11h.31V159c-.48,18.14.17,33.38,3.81,49.53,2.5,11.1,3.91,19.74,12.23,31.85,11.21,16.34,26.27,30.94,44.46,39.46l-.1.25v.24H754.41V280l-.22.14L684,173.26l.25-.15,0-.28a56.46,56.46,0,0,0,39.36-22.47A71.1,71.1,0,0,0,731,138ZM597.4,194.64l45.21,85.25-.22.15v.24H597.15V280h-.24v-85.3h.28l.21-.1Zm-99.29.81.28.11h.25V421h-.25l-.25.14-82-138.06.21-.14-.07-.25a144.67,144.67,0,0,0,46.47-30.54,141.85,141.85,0,0,0,31.89-47.28q1.9-4.65,3.49-9.44Z"/><path class="cls-1" d="M261.06,465.36a48.53,48.53,0,1,0,34.33,14.22,49.14,49.14,0,0,0-34.33-14.22Z"/></g></g></svg>