<svg width="1030" height="1030" viewBox="0 0 1030 1030" fill="none" xmlns="http://www.w3.org/2000/svg">
<g clip-path="url(#clip0)">
<path d="M360.899 938.971C360.606 938.715 353.579 938.021 345.283 937.428C279.673 932.74 218.14 906.855 174.123 865.426C110.09 805.158 75.8765 716.82 71.8216 601.286C68.3851 503.37 90.1481 402.347 133.11 316.789C190.685 202.128 281.149 121.806 385.17 92.9864C409.82 86.157 433.821 80.845 436.957 81.5246C437.603 81.6646 441.895 81.0654 446.495 80.1931C474.7 74.8452 555.53 74.8159 600.863 80.1371C626.29 83.1218 672.829 89.9532 674.415 90.9338C675.019 91.3068 678.891 92.1115 683.019 92.7221C687.148 93.3328 699.953 96.0609 711.475 98.7847C859.307 133.732 960.344 206.685 990.428 300.201C999.026 326.93 1000.59 339.458 1000.32 379.262C1000.09 412.47 999.539 419.118 994.77 446.288C991.858 462.877 988.828 480.597 988.038 485.666C987.247 490.735 984.334 505.816 981.565 519.179C978.796 532.542 975.323 549.508 973.847 556.881C959.558 628.265 953.623 652.073 941.476 686.744C921.678 743.256 895.089 783.291 859.641 809.966C839.518 825.108 801.953 841.336 772.646 847.548C768.959 848.329 758.778 850.634 750.021 852.669C741.264 854.705 732.591 856.59 730.748 856.859C728.904 857.128 718.723 859.368 708.123 861.837C697.522 864.305 683.947 867.387 677.956 868.686C671.964 869.984 661.783 872.622 655.331 874.547C648.878 876.472 638.697 879.397 632.706 881.048C626.714 882.699 607.86 888.598 590.807 894.159C502.829 922.845 472.541 930.365 417.348 937.226C408.516 938.324 361.812 939.768 360.899 938.971V938.971Z" fill="#4F027C"/>
<path opacity="0.8" d="M547.384 957.748C524.516 955.526 507.248 950.305 481.743 937.905C472.04 933.186 461.829 927.985 459.053 926.345C453.127 922.847 426.099 906.004 420.549 902.352C418.44 900.964 411.951 896.8 406.129 893.1C400.308 889.399 393.177 884.819 390.284 882.922C379.442 875.816 341.974 853.407 339.159 852.345C337.548 851.738 332.067 848.847 326.977 845.919C321.888 842.992 298.038 830.52 273.979 818.204C221.709 791.448 205.234 782.14 176.633 763.208C89.0255 705.217 36.6161 635.239 18.7915 552.453C11.4655 518.427 13.015 468.891 22.5602 431.97C42.1957 356.02 92.6056 279.431 166.135 213.834C241.174 146.891 327.229 101.196 420.355 78.8465C481.29 64.2226 551.775 62.4108 609.489 73.9852C711.637 94.4706 803.219 161.661 894.788 283.299C970.585 383.987 1012.08 480.524 1016.64 566.751C1020.92 647.871 994.756 709.556 933.557 762.605C918.818 775.381 896.7 792.43 878.838 804.784C871.25 810.031 866.568 813.321 847.708 826.66C842.745 830.171 758.473 885.68 750.725 890.542C685.529 931.458 632.157 953.164 586.081 957.504C566.905 959.31 563.668 959.33 547.384 957.748V957.748Z" fill="#4F027C"/>
<path d="M508.578 1015.17C505.815 1014.79 496.773 1013.67 488.484 1012.67C480.195 1011.67 471.153 1010.21 468.39 1009.42C465.627 1008.63 459.975 1007.1 455.831 1006.02C433.155 1000.13 416.32 993.745 390.525 981.272C302.289 938.608 215.05 850.628 158.863 747.642C150.893 733.033 144.372 720.742 144.372 720.328C144.372 719.915 142.399 715.293 139.987 710.057C129.458 687.194 113.545 641.494 107.816 617.663C97.4012 574.342 93.6927 543.707 93.8065 501.934C93.9491 449.557 101.93 406.391 119.772 361.506C147.905 290.726 194.063 233.324 282.57 159.047C307.007 138.539 362.213 100.541 394.711 81.8606C411.317 72.3151 459.44 49.3341 461.828 48.4255C464.202 47.5223 465.234 47.3683 468.137 46.0762C481.67 40.0508 515.922 28.9519 531.184 25.6468C534.407 24.9487 537.798 24.1827 538.719 23.9446C557.38 19.1205 573.829 16.2505 607.6 16.1773C642.459 16.1018 645.294 17.7093 664.307 22.2329C675.359 24.8623 684.862 28.1033 685.992 28.5113C688.9 29.5608 688.299 29.1106 690.179 30.0198C694.167 30.0366 726.721 46.9859 737.877 54.8542C769.411 77.0964 802.45 113.847 835.952 163.947C839.954 169.933 843.667 175.206 844.203 175.667C845.661 176.921 889.529 242.594 889.529 243.524C889.529 243.965 892.8 249.031 896.798 254.782C936.539 311.947 963.905 366.757 975.581 412.57C981.412 435.448 982.293 442.746 982.149 466.983C981.907 507.995 972.183 536.178 940.269 588.364C939.143 590.206 937.682 592.843 937.022 594.224C936.362 595.605 935.391 597.112 934.863 597.572C933.15 599.067 926.368 609.127 926.368 610.173C926.368 610.732 924.485 613.659 922.182 616.677C919.88 619.695 917.996 622.943 917.996 623.894C917.996 624.846 916.822 626.598 915.387 627.789C913.953 628.979 911.686 632.273 910.351 635.109C909.015 637.945 906.233 642.661 904.168 645.588C897.305 655.318 887.382 671.622 881.521 682.8C878.336 688.872 872.005 700.505 867.452 708.651C862.899 716.797 855.964 729.982 852.041 737.95C830.536 781.636 806.638 824.738 789.24 851.218C729.927 941.493 657.971 994.763 573.163 1011.18C556.482 1014.41 519.634 1016.69 508.578 1015.17V1015.17Z" fill="#4F027B"/>
<path d="M508.576 1015.17C505.813 1014.79 496.771 1013.67 488.482 1012.67C480.193 1011.67 471.151 1010.21 468.388 1009.42C465.625 1008.63 459.974 1007.1 455.829 1006.03C433.153 1000.13 416.318 993.745 390.523 981.273C302.287 938.608 215.049 850.628 158.862 747.642C150.892 733.034 144.37 720.743 144.37 720.329C144.37 719.915 142.398 715.293 139.986 710.057C129.456 687.194 113.544 641.495 107.815 617.664C97.4 574.342 93.6915 543.708 93.8053 501.935C93.9479 449.558 101.929 406.392 119.77 361.507C147.904 290.727 194.061 233.325 282.569 159.048C307.006 138.541 362.212 100.542 394.71 81.8618C411.316 72.3164 459.271 48.4267 461.827 48.4267C462.394 48.4267 465.233 47.3696 468.135 46.0775C481.668 40.052 515.921 28.9531 531.182 25.648C534.406 24.95 537.796 24.184 538.717 23.9459C557.379 19.1218 573.601 17.6066 607.372 17.5334C642.231 17.4579 645.292 17.7106 664.306 22.2342C675.357 24.8636 685.116 27.6888 685.991 28.5126C686.865 29.3363 688.749 30.0151 690.177 30.0211C694.166 30.0379 726.719 46.9871 737.875 54.8555C769.409 77.0976 802.448 113.848 835.95 163.948C839.952 169.934 843.665 175.208 844.201 175.668C845.659 176.922 889.527 242.595 889.527 243.525C889.527 243.966 892.798 249.032 896.796 254.783C936.537 311.948 963.903 366.758 975.579 412.571C981.41 435.449 982.29 442.747 982.147 466.983C981.905 507.995 972.181 536.178 940.267 588.365C939.141 590.206 937.68 592.843 937.02 594.224C936.36 595.606 935.389 597.113 934.861 597.573C933.148 599.067 926.366 609.127 926.366 610.174C926.366 610.733 924.483 613.66 922.18 616.678C919.878 619.696 917.994 622.944 917.994 623.895C917.994 624.846 916.82 626.599 915.385 627.789C913.951 628.98 911.684 632.274 910.349 635.11C909.013 637.946 906.231 642.661 904.166 645.589C897.303 655.319 887.38 671.623 881.519 682.8C878.334 688.873 872.003 700.506 867.45 708.652C862.897 716.798 855.962 729.982 852.039 737.951C830.534 781.636 806.636 824.738 789.238 851.218C729.925 941.493 657.969 994.763 573.161 1011.18C556.48 1014.41 519.632 1016.69 508.576 1015.17V1015.17Z" fill="url(#paint0_linear)"/>
<g opacity="0.8">
<path opacity="0.8" d="M562.069 1030.76C559.497 1030.41 551.08 1029.36 543.365 1028.43C535.649 1027.5 527.233 1026.14 524.661 1025.41C522.089 1024.67 516.829 1023.25 512.971 1022.25C491.864 1016.76 476.194 1010.82 452.183 999.208C370.052 959.495 288.849 877.602 236.549 781.742C229.131 768.143 223.061 756.703 223.061 756.318C223.061 755.933 221.224 751.63 218.98 746.757C209.178 725.475 194.367 682.938 189.034 660.755C179.34 620.431 175.888 591.916 175.994 553.033C176.127 504.28 183.556 464.101 200.162 422.321C226.35 356.438 269.314 303.008 351.697 233.87C374.444 214.781 425.83 179.411 456.08 162.024C471.537 153.139 516.175 130.902 518.553 130.902C519.082 130.902 521.724 129.918 524.425 128.715C537.022 123.106 568.905 112.775 583.11 109.699C586.111 109.049 589.267 108.336 590.124 108.115C607.494 103.624 622.595 102.214 654.029 102.146C686.476 102.075 689.325 102.311 707.024 106.521C717.311 108.969 726.394 111.599 727.208 112.365C728.023 113.132 729.776 113.764 731.105 113.77C734.818 113.785 765.119 129.562 775.503 136.886C804.855 157.589 835.608 191.797 866.792 238.431C870.518 244.002 873.974 248.911 874.472 249.34C875.83 250.507 916.663 311.636 916.663 312.501C916.663 312.912 919.708 317.628 923.429 322.981C960.42 376.191 985.893 427.208 996.761 469.852C1002.19 491.147 1003.01 497.94 1002.88 520.5C1002.65 558.675 993.598 584.908 963.892 633.484C962.844 635.198 961.484 637.652 960.87 638.938C960.256 640.224 959.352 641.626 958.861 642.055C957.266 643.446 950.954 652.81 950.954 653.784C950.954 654.304 949.2 657.028 947.057 659.838C944.914 662.647 943.16 665.67 943.16 666.556C943.16 667.441 942.068 669.072 940.732 670.181C939.397 671.289 937.287 674.355 936.044 676.995C934.801 679.634 932.211 684.023 930.289 686.748C923.901 695.806 914.665 710.981 909.209 721.385C906.244 727.038 900.351 737.866 896.113 745.448C891.875 753.031 885.42 765.303 881.769 772.72C861.751 813.383 839.507 853.503 823.313 878.151C768.103 962.181 701.126 1011.76 622.185 1027.05C606.658 1030.05 572.359 1032.17 562.069 1030.76V1030.76Z" fill="url(#paint1_linear)"/>
</g>
<path d="M323.383 333.632C307.996 333.639 292.608 336.387 278.171 341.71C264.415 346.931 251.781 355.102 241.387 365.515C231.103 375.741 222.916 388.035 217.444 401.464C211.812 415.477 208.986 430.632 209.204 445.732C208.818 465.637 213.889 485.623 223.704 502.945C233.613 520.395 248.652 534.898 266.454 544.163C274.625 548.662 283.414 551.999 292.511 554.06C302.37 556.69 312.413 557.547 322.5 557.564C330.904 557.536 339.33 556.661 347.567 554.996C356.128 553.243 364.525 550.699 372.607 547.373V547.186L374.426 491.337C379.839 503.985 387.794 515.543 397.701 525.092C408.364 535.376 420.965 543.629 430.151 547.373C439.337 551.117 444.128 552.662 449.011 553.9L449.118 758.413H522.928L523.008 652.893L585.609 758.466L804.629 758.413V700.691L735.903 700.611V678.705L796.657 678.598V624.086L735.903 623.979V603.945H830.472V758.306H830.686V758.52L906.984 758.413L907.091 603.945L949.439 603.838V546.143L914.34 546.036C927.812 539.354 939.421 529.003 947.54 516.346C952.327 508.881 955.622 500.452 957.117 491.711C959.333 479.385 960.087 454.318 960.087 454.318L959.98 338.821L883.415 338.928L883.602 459.587C883.974 464.281 882.249 473.864 878.305 482.403C876.551 485.014 874.081 487.145 871.243 488.501C868.404 489.858 865.22 490.431 859.793 490.293C854.365 490.156 848.989 487.652 845.828 482.644C845.824 482.639 845.803 482.649 845.801 482.644V482.617C841.92 473.978 840.269 464.345 841.039 454.906L840.932 338.821H764.26L764.153 379.023C760.542 370.608 754.937 363.071 747.888 357.224V357.197C738.718 350.513 728.373 345.471 717.47 342.325C706.572 339.18 695.133 337.946 683.816 338.714C683.812 338.714 683.793 338.714 683.789 338.714L587.481 338.821L587.374 407.911C586.69 405.893 585.981 403.889 585.181 401.919C579.733 388.52 571.515 376.256 561.211 366.104C550.667 355.732 538.018 347.515 524.239 342.138C510.007 336.537 494.696 333.741 479.402 333.926C464.13 334.048 448.86 336.831 434.539 342.138L434.699 342.512C434.69 342.521 434.682 342.531 434.672 342.539C434.624 342.407 434.588 342.269 434.539 342.138C420.789 347.488 408.17 355.71 397.701 366.104C387.445 377.632 378.729 389.85 373.597 401.946L373.49 344.572L373.463 344.411C365.604 340.854 357.366 338.116 348.931 336.307C340.541 334.507 331.964 333.621 323.383 333.632H323.383ZM676.593 393.467C676.97 393.46 677.341 393.455 677.717 393.467C683.03 393.637 688.285 395.602 692.377 399.004C696.471 403.097 698.684 408.981 698.316 414.758C698.316 414.762 698.316 414.78 698.316 414.785C698.668 420.43 696.448 426.183 692.377 430.111L692.216 429.924L692.35 430.111C687.637 433.905 681.481 435.878 675.443 435.487H675.416H663.511V435.273H663.324V393.707H663.511V393.493H675.416C675.424 393.493 675.434 393.494 675.443 393.493C675.818 393.469 676.216 393.473 676.593 393.467ZM326.968 403.203C327.663 403.198 328.36 403.199 329.054 403.23C336.971 403.205 344.882 404.925 352.088 408.205C358.088 410.936 363.698 414.527 368.674 418.85L368.541 419.011L368.755 419.037C366.843 427.793 365.884 436.77 365.919 445.732C365.953 454.488 366.857 463.233 368.621 471.811L368.434 471.864L368.541 472.025C362.784 476.084 356.606 479.54 350.135 482.323C343.04 485.374 335.333 487.017 327.61 487.084C327.605 487.084 327.587 487.084 327.583 487.084C322.198 487.34 316.779 486.444 311.746 484.516C306.708 482.586 302.073 479.615 298.236 475.823C294.509 471.803 291.577 467.011 289.702 461.861C287.828 456.715 287 451.202 287.267 445.732C287.003 440.099 287.873 434.407 289.835 429.121C291.799 423.831 294.864 418.963 298.744 414.865V414.838C302.716 410.94 307.485 407.869 312.682 405.878C317.226 404.137 322.101 403.24 326.968 403.203L326.968 403.203ZM477.529 404.915C478.141 404.917 478.765 404.959 479.375 404.995C479.384 404.995 479.393 404.995 479.402 404.995C484.283 404.812 489.198 405.719 493.688 407.643C498.185 409.57 502.249 412.506 505.485 416.176C512.27 424.359 515.87 435.115 515.357 445.732C515.872 456.26 512.266 466.923 505.485 474.994V475.02C502.226 478.652 498.156 481.545 493.661 483.446C489.174 485.344 484.27 486.254 479.402 486.067C479.393 486.067 479.384 486.068 479.375 486.067C474.497 486.25 469.587 485.343 465.09 483.446C460.584 481.546 456.488 478.65 453.212 475.02V474.994C446.388 466.944 442.772 456.271 443.286 445.732C442.798 435.128 446.407 424.403 453.212 416.256C456.381 412.482 460.455 409.456 464.983 407.509C468.378 406.049 472.021 405.18 475.71 404.968C476.321 404.933 476.918 404.912 477.529 404.915V404.915ZM764.18 438.403L764.34 438.483H764.581V454.318C764.217 468.091 764.707 479.658 767.47 491.925C769.369 500.352 770.441 506.912 776.754 516.105C785.27 528.507 796.705 539.592 810.515 546.062L810.435 546.25V546.437H781.97V546.25L781.81 546.357L728.546 465.177L728.733 465.07L728.707 464.856C734.573 464.227 740.304 462.38 745.427 459.453C750.55 456.526 755.068 452.526 758.589 447.791C760.759 444.872 762.611 441.753 764.18 438.403L764.18 438.403ZM662.762 481.413L697.085 546.143L696.925 546.25V546.437H662.575V546.25H662.388V481.493H662.602L662.762 481.413V481.413ZM587.374 482.028L587.588 482.109H587.775V546.25V551.679V653.294H587.588L587.401 653.401L525.122 548.577L525.282 548.47L525.229 548.283C538.342 542.933 550.401 535.005 560.515 525.092C570.911 514.93 579.192 502.639 584.726 489.197C585.694 486.845 586.576 484.448 587.374 482.028V482.028Z" fill="white"/>
<path d="M407.393 686.96C397.739 686.96 388.151 690.933 381.325 697.758C374.499 704.583 370.525 714.169 370.525 723.821C370.525 733.473 374.499 743.059 381.325 749.884C388.151 756.709 397.739 760.669 407.393 760.669C417.046 760.669 426.634 756.709 433.46 749.884C440.286 743.059 444.247 733.473 444.247 723.821C444.247 714.169 440.286 704.583 433.46 697.758C426.634 690.933 417.046 686.96 407.393 686.96V686.96Z" fill="white"/>
</g>
<defs>
<linearGradient id="paint0_linear" x1="242.79" y1="234.361" x2="340.847" y2="361.139" gradientUnits="userSpaceOnUse">
<stop stop-color="white" stop-opacity="0.115108"/>
<stop offset="1" stop-color="white" stop-opacity="0"/>
</linearGradient>
<linearGradient id="paint1_linear" x1="169.718" y1="188.774" x2="722.588" y2="724.951" gradientUnits="userSpaceOnUse">
<stop stop-opacity="0.705882"/>
<stop offset="1" stop-opacity="0"/>
</linearGradient>
<clipPath id="clip0">
<rect width="1030" height="1030" fill="white"/>
</clipPath>
</defs>
</svg>