<svg width="43" height="42" viewBox="0 0 43 42" fill="none" xmlns="http://www.w3.org/2000/svg">
<path d="M42.2311 38.8103L30.1452 27.061C32.4863 24.2498 33.8958 20.6776 33.8958 16.787C33.8958 7.76974 26.3485 0.432617 17.0729 0.432617C7.79724 0.432617 0.25 7.76966 0.25 16.7869C0.25 25.8042 7.79733 33.1414 17.073 33.1414C21.075 33.1414 24.7495 31.7711 27.6413 29.4952L39.7272 41.2445C40.0725 41.5802 40.5258 41.749 40.9792 41.749C41.4326 41.749 41.8859 41.5802 42.2312 41.2445C42.9236 40.5714 42.9236 39.4834 42.2311 38.8103ZM17.073 29.6983C9.74876 29.6983 3.7917 23.9072 3.7917 16.7869C3.7917 9.66674 9.74876 3.87559 17.073 3.87559C24.3972 3.87559 30.3542 9.66674 30.3542 16.7869C30.3542 23.9072 24.3971 29.6983 17.073 29.6983Z" fill="white"/>
</svg>
