<svg width="53" height="53" viewBox="0 0 53 53" fill="none" xmlns="http://www.w3.org/2000/svg">
<path d="M9.33301 12.3334C9.33301 8.12043 12.7483 4.70517 16.9612 4.70517C21.1742 4.70517 24.5894 8.12043 24.5894 12.3334C24.5894 15.7978 22.2799 18.7228 19.1166 19.6528C20.6158 24.563 25.1823 28.1346 30.5831 28.1346H31.3034C32.0517 24.7072 35.1042 22.1411 38.7561 22.1411C42.969 22.1411 46.3843 25.5563 46.3843 29.7693C46.3843 33.9822 42.969 37.3975 38.7561 37.3975C35.1042 37.3975 32.0517 34.8313 31.3034 31.4039H30.5831C25.7207 31.4039 21.3896 29.1292 18.5958 25.5858L18.5958 33.214C22.0233 33.9623 24.5894 37.0148 24.5894 40.6667C24.5894 44.8797 21.1742 48.2949 16.9612 48.2949C12.7483 48.2949 9.33301 44.8797 9.33301 40.6667C9.33301 37.0149 11.8992 33.9623 15.3266 33.214L15.3266 19.786C11.8992 19.0377 9.33301 15.9852 9.33301 12.3334ZM16.9612 7.9744C14.5538 7.9744 12.6022 9.92598 12.6022 12.3334C12.6022 14.7408 14.5538 16.6923 16.9612 16.6923C19.3686 16.6923 21.3202 14.7408 21.3202 12.3334C21.3202 9.92598 19.3686 7.9744 16.9612 7.9744ZM16.9612 36.3077C14.5538 36.3077 12.6022 38.2593 12.6022 40.6667C12.6022 43.0741 14.5538 45.0257 16.9612 45.0257C19.3686 45.0257 21.3202 43.0741 21.3202 40.6667C21.3202 38.2593 19.3686 36.3077 16.9612 36.3077ZM34.3971 29.7693C34.3971 32.1767 36.3487 34.1282 38.7561 34.1282C41.1635 34.1282 43.1151 32.1767 43.1151 29.7693C43.1151 27.3619 41.1635 25.4103 38.7561 25.4103C36.3487 25.4103 34.3971 27.3619 34.3971 29.7693Z" fill="white"/>
</svg>
